<svg xmlns="http://www.w3.org/2000/svg" width="24" height="24" viewBox="0 0 24 24" fill="none" stroke="currentColor" stroke-width="2" stroke-linecap="round" stroke-linejoin="round" class="lucide lucide-cloud-sun"><path d="M12 2v2"/><path d="m4.93 4.93 1.41 1.41"/><path d="M2 12h2"/><path d="m17.07 4.93-1.41 1.41"/><path d="M22 12h-2"/><path d="m6.34 17.66-1.41 1.41"/><path d="M12 18v2"/><path d="m19.07 17.07-1.41-1.41"/><path d="m6.34 6.34 1.41-1.41"/><path d="M12 8a4 4 0 0 0-4 4 4 4 0 0 0 1.33 2.99"/><path d="M12 8a4 4 0 0 1 4 4 4 4 0 0 1-1.33 2.99"/><path d="M18 12h.01"/><path d="M18 21a3 3 0 1 0 0-6 3 3 0 0 0 0 6Z"/></svg>
