<svg xmlns="http://www.w3.org/2000/svg" width="24" height="24" viewBox="0 0 24 24" fill="none" stroke="currentColor" stroke-width="2" stroke-linecap="round" stroke-linejoin="round" class="lucide lucide-package-search"><path d="M21 10V8a2 2 0 0 0-1-1.73l-7-4a2 2 0 0 0-2 0l-7 4A2 2 0 0 0 3 8v8a2 2 0 0 0 1 1.73l7 4a2 2 0 0 0 2 0l7-4A2 2 0 0 0 21 18v-2"/><path d="M7.5 4.27 9 5.12"/><path d="M7.5 19.73 9 18.88"/><path d="M3.29 7 12 12l8.71-5"/><path d="M12 22V12"/><circle cx="18.5" cy="15.5" r="2.5"/><path d="M20.27 17.27 22 19"/></svg>
